<svg width="200" height="200" viewBox="0 0 160 160" fill="none" xmlns="http://www.w3.org/2000/svg">
  <defs>
    <linearGradient id="grad" x1="0" y1="0" x2="160" y2="160" gradientUnits="userSpaceOnUse">
      <stop offset="0%" stop-color="#0a3f5c"/>
      <stop offset="100%" stop-color="#0ea5e9"/>
    </linearGradient>
    <clipPath id="circle"><circle cx="80" cy="80" r="76"/></clipPath>
    <filter id="shadow"><feDropShadow dx="0" dy="2" stdDeviation="3" flood-color="rgba(0,0,0,0.6)"/></filter>
  </defs>
  <circle cx="80" cy="80" r="76" fill="url(#grad)"/>
  <!-- Faint stars -->
  <circle cx="30" cy="35" r="1" fill="rgba(255,255,255,0.35)" clip-path="url(#circle)"/>
  <circle cx="55" cy="25" r="0.8" fill="rgba(255,255,255,0.28)" clip-path="url(#circle)"/>
  <circle cx="120" cy="30" r="1.1" fill="rgba(255,255,255,0.30)" clip-path="url(#circle)"/>
  <circle cx="140" cy="45" r="0.7" fill="rgba(255,255,255,0.22)" clip-path="url(#circle)"/>
  <!-- Distant ridge -->
  <polygon points="0,95 10,80 25,88 40,70 55,82 70,60 85,75 100,58 115,72 130,62 145,75 160,65 160,100 0,100" fill="rgba(255,255,255,0.09)" clip-path="url(#circle)"/>
  <!-- Near foreground ridge -->
  <polygon points="0,118 0,100 15,85 30,95 48,78 65,92 80,72 95,88 112,74 128,86 145,70 160,82 160,118" fill="rgba(255,255,255,0.18)" clip-path="url(#circle)"/>
  <!-- Shadow face -->
  <polygon points="80,72 65,92 80,118 95,118 95,88" fill="rgba(0,20,60,0.14)" clip-path="url(#circle)"/>
  <!-- Lake -->
  <rect x="0" y="118" width="160" height="10" fill="rgba(14,100,160,0.55)" clip-path="url(#circle)"/>
  <line x1="0" y1="119" x2="160" y2="119" stroke="rgba(186,230,255,0.30)" stroke-width="0.8" clip-path="url(#circle)"/>
  <line x1="5" y1="122" x2="155" y2="122" stroke="rgba(186,230,255,0.18)" stroke-width="0.5" clip-path="url(#circle)"/>
  <line x1="10" y1="125" x2="150" y2="125" stroke="rgba(186,230,255,0.10)" stroke-width="0.4" clip-path="url(#circle)"/>
  <!-- Mountain reflection in lake -->
  <polygon points="70,118 80,126 90,118" fill="rgba(255,255,255,0.05)" clip-path="url(#circle)"/>
  <rect x="0" y="128" width="160" height="32" fill="rgba(0,28,65,0.58)" clip-path="url(#circle)"/>
  <!-- Trees left bank -->
  <polygon points="8,118 1,144 15,144" fill="rgba(4,82,52,0.94)" clip-path="url(#circle)"/>
  <polygon points="8,108 0,133 16,133" fill="rgba(5,99,61,0.89)" clip-path="url(#circle)"/>
  <polygon points="8,100 0,123 16,123" fill="rgba(6,114,68,0.84)" clip-path="url(#circle)"/>
  <rect x="6" y="144" width="4" height="7" fill="rgba(28,16,4,0.70)" clip-path="url(#circle)"/>
  <polygon points="22,118 15,143 29,143" fill="rgba(3,78,50,0.92)" clip-path="url(#circle)"/>
  <polygon points="22,109 14,134 30,134" fill="rgba(4,94,58,0.87)" clip-path="url(#circle)"/>
  <polygon points="22,101 13,124 31,124" fill="rgba(5,109,66,0.82)" clip-path="url(#circle)"/>
  <rect x="20" y="143" width="4" height="6" fill="rgba(28,16,4,0.67)" clip-path="url(#circle)"/>
  <!-- Trees right bank -->
  <polygon points="152,118 145,144 159,144" fill="rgba(4,82,52,0.94)" clip-path="url(#circle)"/>
  <polygon points="152,108 144,133 160,133" fill="rgba(5,99,61,0.89)" clip-path="url(#circle)"/>
  <polygon points="152,100 143,123 161,123" fill="rgba(6,114,68,0.84)" clip-path="url(#circle)"/>
  <rect x="150" y="144" width="4" height="7" fill="rgba(28,16,4,0.70)" clip-path="url(#circle)"/>
  <polygon points="138,118 131,143 145,143" fill="rgba(3,78,50,0.92)" clip-path="url(#circle)"/>
  <polygon points="138,109 130,134 146,134" fill="rgba(4,94,58,0.87)" clip-path="url(#circle)"/>
  <polygon points="138,101 129,124 147,124" fill="rgba(5,109,66,0.82)" clip-path="url(#circle)"/>
  <rect x="136" y="143" width="4" height="6" fill="rgba(28,16,4,0.67)" clip-path="url(#circle)"/>
  <!-- Fancy P -->
  <text x="82" y="142" font-family="'Pinyon Script', cursive" font-size="116" fill="white" fill-opacity="0.95" text-anchor="middle" clip-path="url(#circle)" filter="url(#shadow)">P</text>
</svg>
